<?xml version="1.0" standalone="no"?>
<!DOCTYPE svg PUBLIC "-//W3C//DTD SVG 20010904//EN"
 "http://www.w3.org/TR/2001/REC-SVG-20010904/DTD/svg10.dtd">
<svg version="1.0" xmlns="http://www.w3.org/2000/svg"
 width="16.000000pt" height="16.000000pt" viewBox="0 0 16.000000 16.000000"
 preserveAspectRatio="xMidYMid meet">
<metadata>
Created by potrace 1.11, written by Peter Selinger 2001-2013
</metadata>
<g transform="translate(0.000000,16.000000) scale(0.006154,-0.006154)"
fill="#000000" stroke="none">
<path d="M1011 2331 c-21 -21 -49 -65 -62 -97 -22 -54 -24 -76 -27 -277 l-3
-218 34 -67 c18 -37 55 -100 81 -141 98 -153 175 -332 176 -409 l0 -34 -45 60
c-48 64 -66 72 -167 72 -84 0 -78 24 -78 -305 l0 -293 103 -148 c56 -82 113
-165 126 -185 49 -73 110 -94 206 -68 95 25 146 65 186 146 23 47 24 55 27
365 4 375 24 302 -170 623 -29 50 -61 106 -71 126 -20 43 -49 151 -42 157 3 3
6 3 8 1 1 -2 24 -36 49 -76 47 -71 47 -71 100 -78 29 -4 69 -7 88 -8 l35 -2 3
238 2 238 -61 102 c-34 56 -77 129 -96 162 -44 76 -58 91 -112 127 -42 26 -52
28 -148 28 l-103 0 -39 -39z m266 -60 c69 -32 73 -49 73 -291 l0 -210 -35 0
-35 0 0 199 c0 231 3 223 -100 229 -114 7 -110 16 -110 -223 l0 -205 43 -67
c104 -162 187 -347 218 -482 13 -59 12 -522 -2 -577 -34 -132 -176 -172 -275
-76 -62 60 -68 83 -72 310 -2 111 -1 214 2 227 5 20 13 25 40 25 33 0 33 -1
40 -52 3 -29 6 -126 6 -215 0 -177 7 -206 51 -229 59 -30 117 -4 140 63 17 54
6 459 -15 537 -27 97 -74 198 -152 331 -42 69 -82 144 -90 167 -19 54 -20 465
-1 488 54 66 186 91 274 51z"/>
</g>
</svg>
